<?xml version="1.0" encoding="UTF-8" standalone="no"?>
<svg
   xmlns:ns="&amp;ns_sfw;"
   xmlns:dc="http://purl.org/dc/elements/1.1/"
   xmlns:cc="http://creativecommons.org/ns#"
   xmlns:rdf="http://www.w3.org/1999/02/22-rdf-syntax-ns#"
   xmlns:svg="http://www.w3.org/2000/svg"
   xmlns="http://www.w3.org/2000/svg"
   xmlns:sodipodi="http://sodipodi.sourceforge.net/DTD/sodipodi-0.dtd"
   xmlns:inkscape="http://www.inkscape.org/namespaces/inkscape"
   version="1.1"
   id="Buenos_Aires"
   x="0px"
   y="0px"
   width="1151.934px"
   height="1172.888px"
   viewBox="0 0 1151.934 1172.888"
   enable-background="new 0 0 1151.934 1172.888"
   xml:space="preserve"
   inkscape:version="0.91 r13725"
   sodipodi:docname="15comunas.svg"><defs
     id="defs4904" /><sodipodi:namedview
     pagecolor="#ffffff"
     bordercolor="#666666"
     borderopacity="1"
     objecttolerance="10"
     gridtolerance="10"
     guidetolerance="10"
     inkscape:pageopacity="0"
     inkscape:pageshadow="2"
     inkscape:window-width="1881"
     inkscape:window-height="1056"
     id="namedview4902"
     showgrid="false"
     inkscape:zoom="0.40242549"
     inkscape:cx="729.10441"
     inkscape:cy="581.24364"
     inkscape:window-x="39"
     inkscape:window-y="24"
     inkscape:window-maximized="1"
     inkscape:current-layer="Buenos_Aires" /><metadata
     id="metadata4624"><ns:sfw><ns:slices /><ns:sliceSourceBounds
         height="9724.93"
         width="22623.879"
         x="0"
         y="0"
         bottomLeftOrigin="true" /></ns:sfw><rdf:RDF><cc:Work
         rdf:about=""><dc:format>image/svg+xml</dc:format><dc:type
           rdf:resource="http://purl.org/dc/dcmitype/StillImage" /><dc:title></dc:title></cc:Work></rdf:RDF></metadata><path
     d="m 801.88395,353.23019 -29,1.5 -8.75,14.25 c 0,0 11.25,6 15.75,10 4.5,4 10.75,11.75 13,14 2.25,2.25 9.83007,17.16992 9.83007,17.16992 l -21,25 3,8.33008 2.66993,38 c 0,0 -14.9711,0.91148 -29.6211,1.77149 l 0,0.01 2.16992,19.62891 2.22071,39.53125 1.11133,54.95898 0,0.0801 2.44921,54.34961 4,42.66992 c 0,0 28.33985,-8.67 32.33985,-11 2.44,-1.42 8.47094,-5.70101 12.96094,-9.04101 l -0.30079,12.04101 6.66993,-1.66992 7.66992,-11.66016 -0.25,-9.90039 c 5.06,-4.009 11.18017,-8.78929 14.70117,-11.5293 1.77,-1.37 2.87891,-2.24023 2.87891,-2.24023 l 19.33007,-0.33008 1.33985,17.66016 13.66015,-14.66016 0.66993,-12 23,-1 6.09961,-6.09961 -1,-0.80078 -3.25977,-2.61914 -7.83984,0.7207 -2.98047,-30.92968 3.81054,-0.48047 -0.48046,-4.17969 -3.71875,0.17969 -2.84961,-30.60938 3.83984,-0.28125 -0.0215,-0.25 -0.41993,-4.26953 -3.78906,0.19922 -1.60937,-18.07031 -1.77149,-19.12891 3.5,-0.33984 0,-0.01 -0.42969,-4.02148 -3.41992,0.30078 -3.34961,-34.05078 3.53907,-0.39844 -0.63868,-9.03125 -0.12109,-1.68945 -7.37891,0.59961 -5.80078,-20.23047 9.58985,-5.07813 -3.95899,-7.83007 1.22852,-0.56055 3.80078,7.75976 2.7207,-1.41015 -4.52148,-8.76953 1.36914,-0.56055 4.34179,8.82031 0.93946,-0.38086 5.56054,9.96094 0.64063,0.28906 0.91016,-0.35937 0.80859,-0.70899 0.0605,-0.62109 -9.91993,-18.55078 -0.4707,-1.21875 -1.56836,-1.35938 -1.85156,-0.64062 -1.80859,-0.0195 -0.66016,-0.46094 -1.54102,-1.5 -0.19921,-1.59961 13.53906,-3.38086 28.45117,-7.08984 -0.0703,-6.74024 -19.35938,1.33985 -0.73047,-7.60938 19.72071,-1.33984 -0.91992,-11.20899 -16.54102,1.75 -0.01,0 -8.88867,0.94922 -0.80273,-0.94922 -0.01,0 -4.71875,-5.55078 27.83008,-3.13086 0,-2.68945 -10.69141,-7.39063 -31.33007,2.91016 -8.66993,-6.03906 0,-0.85938 26.73047,-2.7207 0,-2.4707 -13.44922,-8.94922 -31.85156,2.51953 -3.97851,7.71094 -5.38086,-3.44141 -19.75,0.75 -17,-12 z m 125.59961,105.91992 -7.84961,3.83008 -16.5,8.25 0.75,2.75 -15.06055,0.91992 0.75,8.95117 3.69922,-0.41992 3.25,34.35938 -3.8086,0.31054 0.37891,3.94922 3.66992,-0.33008 3.5,37.25 -3.6289,0.47071 0.33984,4.25976 3.58008,-0.16992 2.94922,30.67969 -3.57032,0.37109 0,0.0391 0.5,4.25 3.56055,-0.30079 2.91016,30.21094 3.35937,2.5 1.00977,0.75 29.11133,-37.55078 2.33007,10 c 0,0 10.66987,1.33008 12.33987,1.33008 1.66,0 7.3594,-1.20899 7.3594,-1.20899 l 0,-0.58007 0,-1.40039 6.8183,-4.25977 5.7109,-7.16016 8.67,1.11914 12.1601,1.56055 10.69921,-3.35937 2.6407,-0.24024 2.1308,0.5293 3.5196,-0.74024 2.2109,-2.23828 1.8398,-2.23047 0.6289,-3.90039 -1.3574,-10.88086 -3.6894,-17.25 -2.5703,-3.25 -0.42,-1.33007 -13.15821,-12.03907 -1.7304,-0.84961 -7.3711,-5.37109 -1.8496,-11.42969 -0.92,-2.00976 -2.3515,-13.31055 -0.7774,-0.57031 -1.1113,-2.46875 -3.5,-1.79102 -0.9199,-2.68945 -3.1289,-1.56055 -2.0313,-2.45898 -3.8691,-3.14063 -2.0313,-3.58984 -4.0586,-2.23047 -7.9199,-8.74023 -0.5508,-2.67969 -5.16011,-4.46875 -4.25977,-2.13086 -2.77148,-2.34961 -3.46875,-1.75 -1.0625,0.20898 -2.66992,-1.16992 -7.25,-1.25 z"
     id="comuna1"
     inkscape:connector-curvature="0"
     style="fill:none;stroke:#000000;stroke-opacity:1" /><path
     d="m 811.6359,300.38058 -43.58008,3.8711 -0.33008,2.30859 -1.63086,1.14062 -2.13867,3.67969 42.51953,29.30078 -3.25,4.54883 -9.88086,0.87109 -28.01953,-19.53125 -9.24023,-6.54882 -0.69922,-1.38086 -3.66992,1.83984 -25,-17.33008 -2.33008,8.33008 -14.66992,16.66992 c 0,0 3.66984,5.33 4.33984,7 0.66,1.66 6,5.66008 11,8.33008 5,2.67 14.33008,11.33008 14.33008,11.33008 l -19.33008,36.66992 -7,-7.33008 -21,1.33008 -16.66992,27.66992 -26.33008,40 -6.05078,19.5 0,0.01 20.05078,0.82031 36.33008,0.33008 12.66992,8.66992 c 0,0 15.66,2.33008 18,2.33008 1.12,0 14.27899,-0.75859 27.70899,-1.55859 14.65,-0.86 29.62109,-1.77149 29.62109,-1.77149 l -2.66992,-38 -3,-8.33008 21,-25 c 0,0 -7.58008,-14.91992 -9.83008,-17.16992 -2.25,-2.25 -8.5,-10 -13,-14 -4.5,-4 -15.75,-10 -15.75,-10 l 8.75,-14.25 29,-1.5 17,12 19.75,-0.75 5.37891,3.44141 3.98046,-7.71094 -8.55078,-6.28906 0.0293,-0.8711 26.91016,-2.96875 -0.17969,-2.4707 -23.59961,-15.66016 -32.07031,2.23047 -8.19922,-6.09961 -0.41992,-0.76172 26.81836,-2.64843 -0.22852,-2.91016 -12.61914,-9.06055 -2.03125,-10.75 -2.21875,-1.57031 z"
     id="comuna2"
     inkscape:connector-curvature="0"
     style="fill:none;stroke:#000000;stroke-opacity:1" /><path
     d="m 663.05387,473.48019 -10.66992,58.33008 -3.33008,4.33984 1,14.33008 c 0,0 4.66008,10.33 5.33008,12 0.67,1.67 2.33007,9 2.33007,9 l 2,39.66992 4,59.66016 18.33985,-5.66016 55.33008,-7.33984 28.33007,-6 -2.44921,-54.34961 0,-0.0801 -1.11133,-54.95898 -2.21875,-39.53125 -2.16992,-19.62891 0,-0.01 c -13.43,0.8 -26.59094,1.55859 -27.71094,1.55859 -2.34,0 -18,-2.33008 -18,-2.33008 l -12.66992,-8.66992 -36.33008,-0.33008 z"
     id="comuna3"
     inkscape:connector-curvature="0"
     style="fill:none;stroke:#000000;stroke-opacity:1" /><path
     style="fill:none;stroke:#000000;stroke-opacity:1"
     d="m 940.38395,594.48019 -29.10938,37.54883 4.19922,3.13086 1.75977,-2.19922 9.26171,7.06836 16.96094,12.96094 -0.25,0.53906 4.19727,3.29101 0.37109,-0.30078 7.16012,8.1211 4.8692,0.59961 5.8301,15.93945 2.9804,2.00977 6.1289,2.48046 13.2715,-5.89062 -7.9199,-1.71094 -4.7207,-16.28906 8.6797,-7.13086 7.791,8.0625 4.0801,-3.73047 8.67971,7.76953 7.1504,-3.41992 -13.66021,-13.33984 -0.7598,-1.85938 10.58991,-0.61914 9.1894,9.30859 4.3399,2.48047 0.6406,3.56836 6.3789,-0.77734 6,-2.16992 8.8105,-8.23047 -0.5097,-3.09961 -7.4121,-8.22266 -0.6309,-1.07812 -8.1699,-2.02149 -7.2793,-6.97851 -3.4492,-2.17188 -6.1192,-0.1582 -2.5625,1.86914 -3.8183,-4.34961 2.4199,-2.33008 3.3203,-0.46093 3.3184,1.40039 5.7402,0.14843 5.75,0.16016 7.2695,0.46094 2.6817,-2.93946 -1.1504,-3.58007 -1.6602,-2.7793 -0.5097,-6.21094 -1.3985,-3.09961 -2.5508,-4.5 -7.6601,-1.0918 -1.4102,0.78126 -5.7382,-0.92969 -10.0801,2.00976 -3.22071,4.45899 -0.6407,6.17968 1.2793,4.10157 1.67971,3.56836 -0.5097,3.41015 -0.82041,2.14258 -1.7382,-1.82031 0.8808,-1.58008 -0.25,-3.13086 -2.1504,-2.0293 -2.5605,-0.22851 -2.25,1.28906 -0.9199,1.61914 -0.1309,1.86914 0.9317,2.08008 1.8398,1.29102 1.7402,0.15039 1.4688,-0.53125 1.4707,1.82031 -2.5508,1.20117 -3.5,0.88867 -3.1387,-2.45898 -0.0703,-1.27149 -0.8613,-1.64843 -0.7285,-1.11133 -0.1797,-3.13867 -1.25,-2.02149 -1.1504,-2.00976 -0.8594,-2.64844 -0.0195,-3.62109 1.8086,-2.68946 2.2109,-1.18945 4.1094,3.38086 3.8613,-1.32031 0.0899,-0.33985 0.2382,-0.91015 0.7305,-2.75977 -3.4805,-1.19141 -4.3398,0.29102 -2.5605,1.39063 -3.2793,-0.81055 -4.5899,0.0996 -4.5996,4.48047 -4.4316,0.22851 -6.8184,-2.4707 0,-0.92969 c 0,0 -5.7013,1.21094 -7.3613,1.21094 -1.67,0 -12.33987,-1.33008 -12.33987,-1.33008 l -2.33007,-10 z m -29.90039,38.57031 -6.09961,6.09961 -23,1 -0.66993,12 -13.66015,14.66016 c -0.002,0.002 -0.002,0.002 -0.002,0.002 l -1.33984,-17.66015 -19.33008,0.33007 c 0,0 -1.11086,0.87024 -2.88086,2.24024 -3.52,2.74 -9.6382,7.5193 -14.69922,11.5293 l 0.25,9.90039 -7.66992,11.66015 -6.66992,1.66992 0.29883,-12.04101 c -4.49,3.34 -10.51897,7.62101 -12.95899,9.04101 -3.9996,2.32977 -32.33226,10.99828 -32.33789,11 l 0,-0.002 -4,-42.66992 -28.33007,6 -55.33008,7.33984 -18.33985,5.66016 1.33985,17.33984 5,14 -4.66992,16.66016 -59.94922,12.75976 0,0.01 -43.38086,9.23047 0.33008,21 -13.66993,7.33984 21.33985,21 -19.58008,19.75977 34.91016,30.24023 16.83984,25.55078 1.26953,-1.00976 7.03125,-4.75 4.28906,-2.33985 18.81055,-7.16015 4.51953,-1.99024 4.13086,-1.2207 4.2793,-1.70898 2.58008,-0.77149 3.99023,-0.81836 4.50977,-0.21094 5.90039,0.88086 4.14062,1.45899 3.36914,1.75 3.15039,1.5 3.2793,1.91992 5.9707,1.28125 2.64063,0.36914 2.08984,-0.0996 2.04883,-0.37109 4.90039,-1.2793 3.09961,-0.94922 3.16016,-0.43164 4.33007,-0.14844 2.57032,0.29883 1.9707,0.55078 4.04883,2.08985 2.39453,1.82617 0.002,0.006 0.74024,0.56836 2.20898,1.89062 1.75,0.85938 2.22266,0.0606 1.35742,-0.89063 0.68164,-1.55859 0.30078,-1.98047 -0.30078,-2.04102 -0.65039,-3.8789 -0.2793,-2.51954 0.60938,-1.79101 1.35937,-1.06055 1.16016,-0.34961 1.71094,-0.0625 2.26953,0.54102 2.08984,1.05078 2.60156,1.31836 2.08008,1.9414 1.53906,1.75977 0.31055,1.09961 -0.14062,1.01172 -0.83008,1.89844 -1.67969,1.27148 -5.66016,2.67969 -1.00976,0.99023 -0.5,1.63867 0.01,1.74024 0.33985,1.25 0.68945,1.37109 1.58985,1.03906 1.91015,0.5 2.57031,-0.0605 5.31055,-0.13086 5.75,1.83984 8.83008,0.40039 5.49023,-2.05859 4.51953,-5.23047 2.58985,-1.62109 2.43945,-0.88868 2.16992,-0.25976 3.58008,-0.86133 1.83985,-0.62891 1.08007,-0.62109 2.5625,-2.66992 2.26953,-3.28906 4.29883,-5.3711 3.47266,-3.15039 3.37891,-1.25 3,-0.6875 2.92968,-0.30078 9.53125,0.0801 7.84961,-0.35938 1.85938,-0.27148 2.83008,-0.43945 10.50976,-2.75 8.87109,0.83984 2.66016,-0.13867 1.60742,-0.40039 1.35157,-0.59961 6.24023,-7.11133 3.94922,-4.5293 6.10156,-4.04101 5.66992,-4.07813 0.83985,-1.36914 0.33984,-1.75 0.17969,-4.43164 0.26172,-4.31055 1.27734,-2.61914 1.93164,-1.85156 5.55078,-3.47851 16.63867,-10.42969 1.88086,-0.74024 2.2793,-0.4707 3.26953,-0.26953 2.10156,-0.62109 1.38868,-0.67969 1.14062,-0.84961 8.33984,-8.93945 2.91993,-2.95118 2.59961,-2.14843 3.31054,-1.92188 4.68946,-2.25 1.85156,-1.09961 1.20898,-1.16992 0.32031,-1.33008 -0.14062,-2.77929 -4.19922,-12.06055 -1.07031,-3.13867 -0.74024,-3.56055 -0.16015,-3.5 0.16992,-2 0.65039,-1.67969 1.75977,-2.28125 9.2207,-10.13867 7.16016,-4.13086 7.24028,-8.82031 6.4199,-8.49024 -7.2305,-3.96875 -1.2402,-3.75976 -2.06058,-6.40039 -2.67969,-8.65039 -2.26953,-5.00977 -4.84961,-6.66015 -29.60156,-23.13086 1.55078,-1.92969 -4.06054,-3.25977 z"
     id="comuna4"
     inkscape:connector-curvature="0"
     sodipodi:nodetypes="ccccccccccccccccccccccccccccccccccccccccccccccccccccccccccccccccccccccccccccccccccccccccccccccccccccccsccccccccccccccccccccccccccccccccccccccccccccccccccccccccccccccccccccccccccccccccccccccccccccccccccccccccccccccccccccccccccccccccccccccccccccccccccccccccccccccccccccccccccc" /><path
     d="m 606.38395,471.15011 -18.96875,2.56055 c 0,0 -12.56202,7.02047 -14.04102,9.23047 -1.48,2.22 -8.49922,13.67062 -11.44922,15.89062 -0.87,0.65 -3.09125,2.03993 -5.78125,3.66993 l 0,0.01 13.54102,18.84961 4.06054,55.41992 3.31836,4.06055 6.96094,39.42969 5.24024,29.65039 16.16992,81.64843 59.94922,-12.75976 4.66992,-16.66016 -5,-14 -1.33985,-17.33984 -4,-59.66016 -2,-39.66992 c 0,0 -1.66007,-7.33 -2.33007,-9 -0.67,-1.67 -5.33008,-12 -5.33008,-12 l -1,-14.33008 3.33008,-4.33984 10.66992,-58.33008 -20.04883,-0.82031 -36.62109,-1.50977 z"
     id="comuna5"
     inkscape:connector-curvature="0"
     style="fill:none;stroke:#000000;stroke-opacity:1" /><path
     d="m 556.14371,502.51144 c -6.45,3.91 -15.64844,9.25 -15.64844,9.25 0,0 -18.84101,11.08031 -21.79101,11.82031 -2.96,0.74 -25.85938,8.5 -25.85938,8.5 l -60.66015,-18.24023 -20.99024,16.75976 15.73047,40.09961 40.0586,102.12891 59.4707,-11.46094 62.81055,-11.44726 -5.24024,-29.65039 -6.96094,-39.42969 -3.31836,-4.06055 -4.06054,-55.41992 -13.54102,-18.84961 z"
     id="comuna6"
     inkscape:connector-curvature="0"
     style="fill:none;stroke:#000000;stroke-opacity:1" /><path
     d="m 426.92496,570.70089 -37.15039,17.53125 -11.46094,6.2793 -12.13867,7.39063 -30.83008,18.77929 32.32032,88.60938 10.27929,28.18945 31.03907,29.17969 -18.84961,31.40039 32.64062,34.49023 17.60938,-18.40039 10,-10.66992 1.66992,-7 c 0,0 25.66015,1.66992 29.66015,1.66992 4,0 21.66993,-1 21.66993,-1 l 30.66992,29.33008 16.41992,-16.57031 19.58008,-19.75977 -21.33985,-21 13.66993,-7.33984 -0.33008,-21 43.38086,-9.23047 0,-0.01 -16.16992,-81.64843 -62.81055,11.44922 -59.4707,11.45898 -40.0586,-102.12891 z"
     id="comuna7"
     inkscape:connector-curvature="0"
     style="fill:none;stroke:#000000;stroke-opacity:1" /><path
     d="m 452.05582,796.48019 -1.66992,7 -10,10.66992 -17.60938,18.40039 -18.96093,19.8086 -22.75977,23.79101 c 0,0 -3,-0.34 -5,-1 -2,-0.67 -5.33984,3.33008 -5.33984,3.33008 l -0.002,-0.002 c 0,0 3.33985,-4.00008 5.33985,-3.33008 2,0.66 5,1 5,1 l 22.75976,-23.79102 -17.36914,-16.25 -9.23047,10.72071 -5.91992,-2.22071 -9.16015,25.42969 -31.75,-31.22851 -34.66993,28.33984 c 0,0 -6.66015,3.00016 -9.66015,3.66016 -3,0.67 -10.33985,5.99984 -12.33985,9.33984 -2,3.33 -29.33015,38.66 -33.66015,42 -4.34,3.33005 -25.83008,18.49025 -25.83008,18.49025 l 3.40039,3.3906 10.50977,10.1192 1.84961,1.7109 13.58984,12.4805 22.23047,19.8086 6.45117,3.6503 6.31836,6.0196 4.36133,6.64264 3.28906,7.8671 4.28125,8.3028 2.58984,1.8086 14.12891,3.75 2.28125,1.5703 0,0 4.47852,3.0996 10.66015,10 10.71094,10.129 10.19922,9.5097 6.48047,5.9903 5.58007,5.0703 6.94922,6.3496 14.20118,13.0215 8.10937,7.3398 9.06055,8.0996 6.88867,7.1289 2.80078,5.791 4.38086,3.3008 5.58984,4.0293 4.66993,-6.0293 13.1289,-17.3105 23.36133,-32.6895 9.79883,-14.6504 1.49023,-2.2304 19.69922,-28.4707 14.77149,-21.5586 c 2.30679,-2.9394 8.3308,-12.24785 10.84184,-15.82034 l 4.66016,-5.1289 2.85937,-2.2012 1.69922,-3.2598 0.52149,-2.7695 4.53906,-6.5801 8.30078,-11.8105 6.0293,-9.2402 0.46093,-0.6895 4.50977,-6.3906 4.99023,-7.25 2.12891,-3.3594 8.65039,-12.2793 5.94922,-9.43945 4.69922,-7.07031 3.57031,-4.89063 4.51953,-6.63086 3.28125,-4.80859 4.08008,-5.58008 6.19922,-6.73047 4.74023,-4.06836 2.47852,-1.98047 -16.83984,-25.55078 -34.90821,-30.24023 -16.41992,16.57031 -30.66992,-29.33008 c 0,0 -17.66992,1 -21.66992,1 -4,0 -29.66016,-1.66992 -29.66016,-1.66992 z"
     id="comuna8"
     inkscape:connector-curvature="0"
     style="fill:none;stroke:#000000;stroke-opacity:1"
     sodipodi:nodetypes="cccccccccccccccccccccccccccccccccccccccccccccccccccccccccccccccccccccccccccccccccccscc" /><path
     d="m 146.08316,687.24777 c -10.0072,-0.25708 -25.1554,3.6543 -34.3691,6.9043 -11.33,4 -40.310598,2.48046 -40.310598,2.48046 l -0.4687,1.63868 2.7402,8.87109 0.5488,2.29883 0.1,2.46094 1.1602,11.83007 0.2812,9.32032 0.4395,7.61914 0.5605,10.92968 0.7598,17.8711 1.1406,21.58008 0.75,15.22851 0.42,6.41992 0.7988,2.56055 0.4297,0.99024 1.0703,2.47851 3.749999,4.41992 5.8808,4.83985 4.4395,3.91992 2.0098,1.89258 12.240199,11.35742 11.5898,10.63086 6.2696,5.86914 11.2304,10.42187 21.5411,19.64844 19.5,17.98047 11.4082,10.51953 18.9902,17.15042 1.31054,1.3398 1.92969,1.9199 c 0,0 21.49008,-15.1602 25.83008,-18.4902 4.33,-3.34 31.66015,-38.67 33.66015,-42 2,-3.34 9.33985,-8.66984 12.33985,-9.33984 3,-0.66 9.66015,-3.66016 9.66015,-3.66016 l 34.66993,-28.33984 31.75,31.23047 9.16015,-25.42969 5.91992,2.21875 9.23047,-10.71875 17.36914,16.25 18.96094,-19.81055 -32.64062,-34.49023 18.84961,-31.40039 -31.03907,-29.17969 -10.27929,-28.18945 -10.28125,4.85937 -13.33008,10 -11.66992,-11.66992 -45.56055,25.58984 -38.10938,21.41016 -9,-7.66992 -24.66015,13.33984 -38.66991,-34.66797 -2.3301,-17.33007 22.6602,-4.66993 c 0,0 0.14,-2.52 -4,-4 -3.38,-1.21 -10.8102,-1.28007 -13.6602,-2.33007 -1.55,-0.57 -3.4295,-1.51993 -5.5195,-2.66993 -6.48,-3.559 -14.9305,-9.05907 -21.4805,-11.33007 -1.6256,-0.5625 -3.6614,-0.84498 -5.9707,-0.9043 z"
     id="comuna9"
     inkscape:connector-curvature="0"
     style="fill:none;stroke:#000000;stroke-opacity:1" /><path
     d="m 225.37418,541.31222 -63.16992,45.81055 -20.3203,21.05859 -61.730498,-55.57031 -1.2285,3.28906 -4.6211,11.00977 -3.959,11.60156 -1.8906,4.86914 0.01,4.16992 0.8203,9.16016 0.4492,6.88086 0.7715,21.73828 1.039,19.12109 0.42,10.0293 0.7207,17.45117 0.9394,16.95899 -2.2207,7.74023 c 0,0 28.980598,1.51953 40.310598,-2.48047 11.34,-4 31.6698,-9 40.3398,-6 6.55,2.27 15.0005,7.77008 21.4805,11.33008 2.09,1.15 3.9695,2.09992 5.5195,2.66992 2.85,1.05 10.2802,1.12008 13.6602,2.33008 4.14,1.48 4,4 4,4 l -22.6602,4.66992 2.3301,17.33008 38.66991,34.66992 24.66015,-13.33984 9,7.66992 38.10938,-21.41016 45.56055,-25.58984 11.66992,11.66992 13.33008,-10 10.28125,-4.85937 -32.32032,-88.60938 -23.15039,14.09961 -49.46093,-47.01953 -10.38868,-9.88086 c 0,0 -5.17148,-5.90905 -7.02148,-7.74805 -1.85,-1.85 -19.94922,-28.82031 -19.94922,-28.82031 z"
     id="comuna10"
     inkscape:connector-curvature="0"
     style="fill:none;stroke:#000000;stroke-opacity:1" /><path
     d="m 150.43476,369.56027 -1.6211,3.91992 -2.9903,7.99023 -2.7793,7.41993 -2.1601,5.37109 -2.0801,5.62891 -2.0488,5.04101 -2.3106,5.7793 -5.0097,14.4707 -5.4512,13.25 -4,10.75977 -2.9199,7.79883 -2.5801,6.23046 -3.4688,10.11133 -0.6308,1.8086 -2.3203,4.28125 -1.9102,5.51953 -2.4785,5.75 -0.9805,3.08008 -4.609299,11.8789 -1.4512,3.57031 -6.3106,16.1211 -10.169899,27.26953 61.730498,55.57031 20.3203,-21.06054 63.16992,-45.81055 c 0,0 18.09922,26.97031 19.94922,28.82031 1.85,1.84 7.02148,7.75 7.02148,7.75 l 10.38868,9.88086 49.46093,47.01953 23.15039,-14.09961 30.83008,-18.78125 12.13867,-7.38867 11.46094,-6.28125 37.15039,-17.5293 -15.73047,-40.09961 20.99024,-16.75976 -52.39063,-15.75 -25.49023,20.31836 -20.68946,-33.61914 -2.29101,-1.17969 -22.26953,-11.46094 -69.66992,-6 -28,-13.66992 -2.73047,-3.70898 -58.21872,-79.21094 z"
     id="comuna11"
     inkscape:connector-curvature="0"
     style="fill:none;stroke:#000000;stroke-opacity:1" /><path
     d="m 347.99332,115.02121 -5.22851,2.56054 -6.97071,3.91993 -10.31054,6.42968 -6.14844,3.69922 -8.65039,4.65039 -7.54102,4.03906 -12.95898,6.70118 -6.75,3.08007 -22.34961,11.66993 -4.53125,1.54882 -3.37891,2 -4.40039,4.31055 -10.71094,7.0293 -9.10937,4.26172 -6.83985,3.61914 -2.37109,4.59961 -2.30859,5.08984 -2.04102,5.40039 -0.91015,6.05078 -3.94922,14.33985 -6.41016,11.56054 -5.06055,12.07813 -4.50977,12.77148 -6.4297,16.94922 -6.6992,17.13086 -2.2109,4.55859 -1.8399,3.66993 -0.709,1.66992 -1.4707,3.4414 -2.8711,7.83008 -2.2988,6.10938 -3.5801,9.11914 -5.4902,14.04101 -3.1992,8.75977 -2.4317,8.00976 -4.8886,11.83985 58.21872,79.21094 73.06054,-55.6211 49.66993,-35.13867 52.88086,-37.41992 -26.55079,-40.11133 35.33985,-25.33008 -7.66992,-3.66992 4.33007,-2 -10.04882,-14.72851 -22.54102,-32.99024 -4.74023,-6.95117 31,-20 -35.39063,-59.78906 z"
     id="comuna12"
     inkscape:connector-curvature="0"
     style="fill:none;stroke:#000000;stroke-opacity:1" /><path
     d="m 435.62418,45.601276 -4.5293,0.5293 -3.16992,2.08008 -2.77148,3.10937 -0.0391,2.91016 -2.75976,3.36133 -3.46094,5.33008 -2.0293,3.8789 -0.27929,5.89063 -1.43164,2.09961 -7.8086,6.69922 -12.58007,12.16015 -1.23047,0.5 -7.47071,1.8711 -4.29882,3.26953 -9.78125,4.970704 -6.04883,2.7793 -15.92969,6.99023 -2.01172,0.99024 35.39063,59.78906 -31,20 4.74023,6.95117 22.54102,32.99024 10.04882,14.72851 -4.33007,2 7.66992,3.66992 -35.33985,25.33008 26.55079,40.11133 3.44921,-2.44141 19,15.33008 15.33985,17.66992 c 0,0 13.66,3.00016 19,4.66016 5.33,1.67 33.33,13.67 36,15 2.66,1.34 24.66015,12 24.66015,12 0,0 22.7093,-27.18039 22.5293,-27.90039 -0.18,-0.72 -20.4082,-18.96875 -20.4082,-18.96875 l 16.79883,-20.22071 -21.31055,-13.91015 -20.4082,-12.09961 c 0,0 7.39906,-8.85039 13.53906,-12.65039 6.14,-3.79 16.44055,-11.36969 18.06055,-13.17969 1.63,-1.81 7.22851,-9.39062 7.22851,-9.39062 0,0 9.93117,2.17156 14.45117,2.35156 4.511,0.18 11.91992,0.17969 11.91992,0.17969 l 0.18165,-4.16016 c 0,0 -16.98008,0.36055 -22.58008,-7.93945 -5.6,-8.31 -7.04102,-17.88071 2.70898,-22.22071 9.75,-4.33 13.91125,-7.04054 15.53125,-8.31054 1.63,-1.26 13.54883,-9.38867 13.54883,-9.38867 l -4.69922,-3.25 c 0,0 15.70914,-11.92094 16.61914,-12.46094 0.9,-0.54 5.42039,-3.07 10.65039,0 5.239,3.07 13.18946,8.75 13.18946,8.75 l 5.20898,-12.31055 0.24023,-0.76953 -0.4707,-0.18945 -0.31055,0.01 -0.33007,0.17969 -0.3086,0.46094 -0.4414,0.0195 -2.86914,-0.85938 -4.43946,-0.29101 -3.41015,-1.32032 -2.16993,0.16993 -1.58007,-0.88867 -2.20899,0.63867 -2.2207,-2.51953 -2.64063,-4.17969 -3.37109,-2.5 0.0703,-1.55078 0.41016,0.0195 0,-0.31836 0,-0.32031 -0.35938,-0.0195 0.43946,-4.68165 -0.68946,-4.81835 -1.18945,-3.49024 -2.13086,-3.63086 -2.89844,-3.10937 -3.4707,-2.59961 -5.56055,-3.58008 -5.33007,-2.33984 0.38085,-4.47071 -1.75,-5.25 -3.49023,-3.24023 -4.48047,-2.64063 -4.51953,-1.78906 -3.69922,0.37891 -3.37109,1.49023 -2.25977,0.0898 -3.16015,-2.04882 -0.67969,3.28906 -1.91016,-0.21875 -0.1289,-7.03125 -1.79102,-3.58008 -2.0293,-3.53906 -0.1914,-0.33985 -5.88867,-6.08984 -2.83985,-2.00976 -3.33008,-0.98047 -6.99023,-1.83008 -3.75,-0.50977 -3.91992,1.61914 -3.66016,2 -1.88086,2.73047 -0.84961,2.08985 -1.00976,-0.33008 -0.65039,-0.22071 -2.00977,-2.77929 -1.69922,-3.36914 3.01953,-2.68164 -1.15039,-1.58008 -4.73047,3.71094 0.94141,7.58984 -6.61133,5.33008 -5.24023,8.30078 -8.48828,-4.19141 -1.86133,-1.72851 -4.06055,-8.07032 10.05078,-9.91015 12.92969,-1.03125 2.50977,-2.339854 -0.75977,-4.76953 -2.00977,-6.14062 -1.66015,-5.32813 -3.33985,-5.11132 -1.2207,-0.12891 -0.89844,0.97851 0.21875,2.51172 -10.02929,17.34961 -2.91993,0.40039 -2.06054,0.23828 -1.23047,-2.89843 0.73047,-1.96094 -0.34961,-2.08008 -1.60938,-2.26953 -0.25976,-2.38086 3.46875,-4.25 1.79101,0.15039 2.49024,-1.60937 2.3789,-0.32032 1.08985,-3.67968 -0.0801,-9.08985 -8.98047,-13.55078 -7.75976,-7.20898 -4.35938,-1.32032 z"
     id="comuna13"
     inkscape:connector-curvature="0"
     style="fill:none;stroke:#000000;stroke-opacity:1" /><path
     d="m 570.64371,187.79855 c -2.68017,0.0392 -4.65625,1.15469 -5.21875,1.49219 -0.91,0.54 -16.62109,12.46094 -16.62109,12.46094 l 4.70117,3.25 c 0,0 -11.92078,8.12867 -13.55078,9.38867 -1.62,1.27 -5.7793,3.98054 -15.5293,8.31054 -9.75,4.34 -8.31094,13.91071 -2.71094,22.22071 5.6,8.3 22.58008,7.93945 22.58008,7.93945 l -0.17969,4.16016 c 0,0 -7.41087,3.1e-4 -11.92187,-0.17969 -4.52,-0.18 -14.44922,-2.35156 -14.44922,-2.35156 0,0 -5.60047,7.58062 -7.23047,9.39062 -1.62,1.81 -11.91859,9.38969 -18.05859,13.17969 -6.14,3.8 -13.54102,12.65039 -13.54102,12.65039 l 20.41016,12.09961 21.31055,13.91015 -16.80078,20.22071 c 0,0 20.23015,18.24875 20.41015,18.96875 0.18,0.72 -22.5293,27.90039 -22.5293,27.90039 l -1.66015,8.33984 31.31054,25.36133 42.34961,34.29883 c 0,0 14.34,12.33992 18,13.66992 3.67,1.33 14.66993,6.66992 14.66993,6.66992 l 36.62109,1.50977 0,-0.01 6.04883,-19.5 26.33008,-40 16.66992,-27.66992 21,-1.33008 7,7.33008 19.33008,-36.66992 c 0,0 -9.33008,-8.66008 -14.33008,-11.33008 -5,-2.67 -10.34,-6.67008 -11,-8.33008 -0.67,-1.67 -4.33985,-7 -4.33985,-7 l 14.66993,-16.66992 2.33007,-8.33008 25,17.33008 3.66993,-1.83984 -3.2793,-6.46875 -4.22461,-8.91992 -0.99023,-0.33008 -1.46875,-0.75 -0.40039,-0.6211 0.0215,-0.96875 -0.28125,-0.75 -5.28906,-8.79101 -1.33985,-1.74024 -2.89062,-1.48047 -0.66992,-0.11914 -0.73047,0.17969 -0.66992,0.58984 -1.66993,2.41016 -10.16992,12.4707 -0.7207,-0.58007 -0.13086,-0.48047 0.75,-0.99024 7.80078,-10.33984 0.60938,-0.50977 0.39062,-0.0508 0.7207,-0.34961 0.88086,-0.67968 0.26953,-0.58008 0.18946,-2.83985 0.65039,-1.34961 0.5293,-1.74023 0.77929,-1.80078 0.20117,-1.66016 -0.2207,-1.3789 -0.66992,-1.25 -1.6211,-1.03125 -4.16992,-1.2793 -3.01953,-3.33008 -4.38086,-1.31055 -2.7207,-0.81835 -2.9707,-0.46094 -2.89844,0.35937 -2.86914,0.95117 -2.01172,0.83985 -2.14844,0.60937 -1.7207,-0.41015 -0.78906,-0.98047 -0.61133,-0.83985 1.38086,-0.83984 0.32031,0.52149 1.54883,-1.01172 -0.31836,-0.5 16.44922,-10.33985 0.0605,0.14063 0.99024,-0.63086 -0.1211,-0.18946 4.43165,-2.77929 0.20898,0.29883 0.73047,-0.45899 -0.60938,-0.96094 -0.73046,0.46094 0.16992,0.30078 -4.01953,2.57813 -0.40039,0.21094 -0.1211,-0.18946 -0.9375,0.65039 0.0996,0.18946 -16.38086,10.33007 -0.34961,-0.50976 -1.7793,1.16016 0.5,0.38867 -1.33984,0.88086 -0.37109,-0.50977 -1.22852,-2.46094 -2.12109,-1.61914 -1.97852,-1.25976 -2.41992,-2.27149 -4.69141,-5.33008 0.0117,-1.89843 -3.98047,-5.46094 -3.75976,-3.28906 -5.91016,-3.72071 -4.35937,-4.48047 0.48047,-0.66992 -0.88086,-1.65039 3.66992,-3.75 -0.19922,-0.16992 0.5,-0.88867 -0.0195,-1.00977 -0.61133,-0.80078 -0.91992,-0.4707 -1,0.0703 -0.74024,0.64063 -0.27929,-0.20118 -3.72071,3.72071 -0.5,0.10937 -0.5996,0.57031 -4.82032,-4.08984 -3.94922,-2.95898 -7.93945,-4.96094 -5.5293,-2.78906 -6.14062,-2.23047 -9.38086,-2.99024 -17.97852,-5.29101 0.28907,-0.96875 -2.66993,-0.79102 -0.27929,0.94141 -3.14063,-0.91992 -4.94922,-1.85157 0.19922,-0.54882 -0.42969,-0.16993 -0.2207,0.5293 -5.12109,-2.1289 -0.31836,-0.041 -1.81055,-0.91016 -2.09961,-1.1289 -0.0313,-0.63086 c 0,0 -7.95045,-5.68 -13.18945,-8.75 -1.96125,-1.15125 -3.82158,-1.51569 -5.42969,-1.49219 z"
     id="comuna14"
     inkscape:connector-curvature="0"
     style="fill:none;stroke:#000000;stroke-opacity:1" /><path
     d="m 387.71402,318.15011 -3.44921,2.44141 -52.88086,37.41992 -49.66993,35.13867 -73.06054,55.6211 2.73047,3.70898 28,13.66992 69.66992,6 22.26953,11.46094 2.29101,1.17969 20.68946,33.61914 25.49023,-20.31836 52.39063,15.75 60.66015,18.24023 c 0,0 22.89938,-7.76 25.85938,-8.5 2.951,-0.74 21.79101,-11.82031 21.79101,-11.82031 0,0 9.19844,-5.34 15.64844,-9.25 l 0,-0.01 c 2.69,-1.63 4.91125,-3.01993 5.78125,-3.66993 2.95,-2.22 9.96922,-13.67062 11.44922,-15.89062 1.479,-2.21 14.04102,-9.23047 14.04102,-9.23047 l 18.96875,-2.56055 c 0,0 -10.99897,-5.33992 -14.66797,-6.66992 -3.66,-1.33 -18,-13.66992 -18,-13.66992 l -42.35157,-34.29883 -31.31054,-25.36133 1.66015,-8.33984 c 0,0 -22.00015,-10.66 -24.66015,-12 -2.67,-1.33 -30.67,-13.33 -36,-15 -5.34,-1.66 -19,-4.66016 -19,-4.66016 l -0.002,-0.002 -15.33789,-17.66797 -19,-15.33008 z"
     id="comuna15"
     inkscape:connector-curvature="0"
     style="fill:none;stroke:#000000;stroke-opacity:1" /></svg>