<?xml version="1.0" encoding="UTF-8" standalone="no"?>
<svg
   xmlns:dc="http://purl.org/dc/elements/1.1/"
   xmlns:cc="http://creativecommons.org/ns#"
   xmlns:rdf="http://www.w3.org/1999/02/22-rdf-syntax-ns#"
   xmlns:svg="http://www.w3.org/2000/svg"
   xmlns="http://www.w3.org/2000/svg"
   xmlns:sodipodi="http://sodipodi.sourceforge.net/DTD/sodipodi-0.dtd"
   xmlns:inkscape="http://www.inkscape.org/namespaces/inkscape"
   version="1.1"
   width="2400"
   height="2400"
   id="svg4203"
   inkscape:version="0.91 r13725"
   sodipodi:docname="Mapa_de_Buenos_Aires.svg">
  <metadata
     id="metadata4211">
    <rdf:RDF>
      <cc:Work
         rdf:about="">
        <dc:format>image/svg+xml</dc:format>
        <dc:type
           rdf:resource="http://purl.org/dc/dcmitype/StillImage" />
      </cc:Work>
    </rdf:RDF>
  </metadata>
  <defs
     id="defs4209" />
  <sodipodi:namedview
     pagecolor="#ffffff"
     bordercolor="#666666"
     borderopacity="1"
     objecttolerance="10"
     gridtolerance="10"
     guidetolerance="10"
     inkscape:pageopacity="0"
     inkscape:pageshadow="2"
     inkscape:window-width="1881"
     inkscape:window-height="1056"
     id="namedview4207"
     showgrid="false"
     inkscape:zoom="0.38291667"
     inkscape:cx="1200"
     inkscape:cy="1200"
     inkscape:window-x="39"
     inkscape:window-y="24"
     inkscape:window-maximized="1"
     inkscape:current-layer="svg4203" />
  <path
     style="fill:#aeb19e"
     d="m 642,2169 232,221 186,-262 -62,-61 -145,159 -144,-132 z"
     id="path4319" />
  <path
     style="fill:#aeb19e"
     d="m 430,1971 206,192 73,-82 141,128 140,-153 -308,-300 -65,57 -39,6 -93,110 z"
     id="path4317" />
  <path
     style="fill:#aeb19e"
     d="m 165,1732 254,231 55,-41 99,-113 39,-6 64,-55 -204,-193 -52,37 z"
     id="path4315" />
  <path
     style="fill:#aeb19e"
     d="m 114,1438 8,252 36,34 255,-141 -83,-70 -10,-67 34,-4 -12,-14 -31,2 -41,-15 z"
     id="path4313" />
  <path
     style="fill:#aeb19e"
     d="m 110,1331 3,96 160,-23 42,16 20,-2 -136,-117 -6,-15 -13,-4 z"
     id="path4311" />
  <path
     style="fill:#aeb19e"
     d="m 103,1158 6,163 71,-50 18,6 44,-49 -120,-111 z"
     id="path4309" />
  <path
     style="fill:#aeb19e"
     d="m 793,1844 273,272 21,-26 -2,-34 25,-4 184,-242 -110,-110 -36,38 -70,-72 -104,-5 z"
     id="path4307" />
  <path
     style="fill:#aeb19e"
     d="m 515,1578 269,259 99,-99 -74,-68 50,-76 -75,-72 -20,-55 -48,36 -36,-37 z"
     id="path4305" />
  <path
     style="fill:#aeb19e"
     d="m 265,1347 87,74 22,29 -41,5 6,45 86,74 48,-36 34,31 62,-42 -115,-124 -24,2 -120,-108 z"
     id="path4303" />
  <path
     style="fill:#aeb19e"
     d="m 366,1333 70,59 22,-1 121,128 92,-62 -209,-199 -31,11 z"
     id="path4301" />
  <path
     style="fill:#aeb19e"
     d="m 473,1248 245,239 44,-33 -67,-184 -51,32 -112,-110 z"
     id="path4299" />
  <path
     style="fill:#aeb19e"
     d="m 206,1290 52,44 51,-54 50,46 67,-68 31,-10 66,-64 -79,-95 -187,143 z"
     id="path4297" />
  <path
     style="fill:#aeb19e"
     d="M 128,1107 251,1218 435,1078 370,985 470,912 409,884 282,711 Z"
     id="path4295" />
  <path
     style="fill:#aeb19e"
     d="m 707,1264 92,253 76,75 -50,77 65,60 79,-82 106,7 70,-43 -54,-70 -15,13 -86,-73 -31,-89 22,-15 -81,-219 z"
     id="path4293" />
  <path
     style="fill:#aeb19e"
     d="m 515,1156 131,130 112,-64 -98,-145 -86,31 z"
     id="path4291" />
  <path
     style="fill:#aeb19e"
     d="m 390,988 118,158 59,-53 140,-47 26,-18 -31,-51 7,-16 -27,-3 -42,-22 -157,-16 z"
     id="path4289" />
  <path
     style="fill:#aeb19e"
     d="m 420,879 60,26 161,18 49,23 34,-112 45,-47 -16,-58 -88,70 -86,-39 z"
     id="path4287" />
  <path
     style="fill:#aeb19e"
     d="M 289,697 413,866 569,748 348,543 Z"
     id="path4285" />
  <path
     style="fill:#aeb19e"
     d="m 591,751 71,32 86,-64 -37,-53 z"
     id="path4283" />
  <path
     style="fill:#aeb19e"
     d="m 359,537 222,205 218,-160 -45,-79 -11,-8 -20,10 -67,-64 -12,-44 -85,53 -16,-12 z"
     id="path4281" />
  <path
     style="fill:#aeb19e"
     d="m 652,392 12,41 60,59 19,-11 14,9 59,-47 -3,-22 -69,-86 z"
     id="path4279" />
  <path
     style="fill:#aeb19e"
     d="m 353,525 187,-104 18,12 180,-110 1,-25 66,-43 -81,-130 -267,139 z"
     id="path4277" />
  <path
     style="fill:#aeb19e"
     d="m 678,1071 95,140 122,-67 -30,-80 42,-39 -101,-38 -91,70 z"
     id="path4275" />
  <path
     style="fill:#aeb19e"
     d="m 701,950 20,0 5,16 -11,5 31,50 59,-48 107,40 25,-82 -34,-19 -61,5 -13,-88 -50,-37 -44,44 z"
     id="path4273" />
  <path
     style="fill:#aeb19e"
     d="m 719,660 42,61 17,57 53,38 62,-64 -4,-87 -22,-45 -55,-30 z"
     id="path4271" />
  <path
     style="fill:#aeb19e"
     d="m 1093,1660 55,56 36,-36 118,118 44,-34 101,-5 61,22 51,-14 9,22 20,5 -38,-178 -118,23 -11,-91 30.9174,-47.6796 L 1220,1538 l 13,41 -4,14 -35,6 z"
     id="path4269" />
  <path
     style="fill:#aeb19e"
     d="m 979,1397 27,76 69,60 19,-15 63,86 32,-18 31,-4 -17,-55 106,-19 -39,-167 -271,44 z"
     id="path4267" />
  <path
     style="fill:#aeb19e"
     d="m 881,1066 115,304 272,-43 -39,-182 -6,-110 -21,-24 -61,41 -96,16 -109,-7 -18,-29 z"
     id="path4265" />
  <path
     style="fill:#aeb19e"
     d="m 929,1017 19,31 97,5 86,-15 69,-45 51,-60 47,-11 -34,-11 -188,-152 -22,109 -101,66 z"
     id="path4263" />
  <path
     style="fill:#aeb19e"
     d="m 839,827 11,80 56,-6 40,24 98,-65 26,-124 -134,-66 -33,2 4,85 z"
     id="path4261" />
  <path
     style="fill:#aeb19e"
     d="m 879,613 23,45 33,-3 140,68 49,-54 -43,-42 31,-47 -122,-81 -51,37 z"
     id="path4259" />
  <path
     style="fill:#aeb19e"
     d="m 767,499 45,76 55,30 59,-76 62,-48 40,28 94,-77 -4,-48 98,-91 -80,-60 -24,-5 -79,-58 -50,81 0,39 -167,107 14,19 3,30 z"
     id="path4257" />
  <path
     style="fill:#aeb19e"
     d="m 739,117 87,144 -76,49 57,71 160,-99 1,-34 53,-83 -61,-22 -105,-85 z"
     id="path4255" />
  <path
     style="fill:#aeb19e"
     d="m 1275,1277 49,229 133,-20 -25,-235 z"
     id="path4253" />
  <path
     style="fill:#aeb19e"
     d="m 1210,1000 26,29 7,116 29,119 160,-28 0,-81 -15,-35 -3,-51 26,-130 -139,-4 -44,13 z"
     id="path4251" />
  <path
     style="fill:#aeb19e"
     d="m 1037,516 92,63 -32,48 43,42 -56,61 -1,17 187,153 59,22 75,3 8,-35 101,-160 44,-3 21,14 38,-67 -70,-62 34,-56 -68,-83 -27,-45 -72,-58 -41,-20 -38,-1 -97,-60 -105,99 4,48 z"
     id="path4249" />
  <path
     style="fill:#aeb19e"
     d="m 1563,1612 38,185 51,15 51,-24 40,-46 122,-1 50,-48 3,-29 24,-15 -38,-304 -43,5 -78,66 -88,26 4,73 -21,40 z"
     id="path4247" />
  <path
     style="fill:#aeb19e"
     d="m 1436,1551 8,72 110,-22 112,-55 19,-34 -9,-169 -216,35 13,114 z"
     id="path4245" />
  <path
     style="fill:#aeb19e"
     d="m 1448,1251 11,113 216,-35 -4,-103 -111,0 z"
     id="path4243" />
  <path
     style="fill:#aeb19e"
     d="m 1427,1069 2,51 17,35 0,81 114,-25 111,0 -11,-244 -54,3 -82,-30 -72,0 z"
     id="path4241" />
  <path
     style="fill:#aeb19e"
     d="m 1421,925 105,1 85,31 110,-6 -9,-102 84,-106 -222,-156 -13,21 70,62 -49,87 -26,-15 -34,1 -93,147 z"
     id="path4239" />
  <path
     style="fill:#aeb19e"
     d="m 1685,1225 9,203 82,-24 72,-60 -16,-58 0,-78 z"
     id="path4237" />
  <path
     style="fill:#aeb19e"
     d="m 1844,1204 0,79 14,53 54,-5 4,30 28,-22 -9,-22 50,-5 -23,-19 -12,-102 -71,8 -6,-16 -22,3 z"
     id="path4235" />
  <path
     style="fill:#aeb19e"
     d="m 1684,1210 149,-18 9,-19 41,-6 4,15 63,-8 -13,-94 -258,17 z"
     id="path4233" />
  <path
     style="fill:#aeb19e"
     d="m 1672,966 6,114 257,-18 -5,-107 z"
     id="path4231" />
  <path
     style="fill:#aeb19e"
     d="m 1727,851 9,98 193,-9 -36,-77 29,-43 50,-5 -2,-41 -120,-75 z"
     id="path4229" />
  <path
     style="fill:#aeb19e"
     d="m 1959,1343 -40,30 35,273 62,-25 36,-35 -7,-32 -42,-28 10,-18 52,-3 5,-22 31,-16 9,-31 -23,-59 -58,-55 -16,13 -20,-14 -42,4 z"
     id="path4227" />
  <path
     style="fill:#aeb19e"
     d="m 1990,943 -48,11 6,113 27,220 38,33 27,-26 58,-46 z"
     id="path4225" />
  <path
     style="fill:#aeb19e"
     d="m 1926,831 -22,31 35,76 11,-3 -21,-49 31,-15 2,-21 z"
     id="path4223" />
  <path
     style="fill:#aeb19e"
     d="m 2074,909 -60,29 -10,2 3,7 10,-2 57,-28 46,2 14,43 36,42 8,42 7,0 -10,-46 -34,-41 -18,-47 z"
     id="path4221" />
  <path
     style="fill:#aeb19e"
     d="m 2180,1074 -47,89 -4,46 -24,24 4,8 28,-26 4,-50 48,-91 z"
     id="path4219" />
  <path
     style="fill:#aeb19e"
     d="m 2250,1235 -23,5 -26,61 -16,-2 -13,-51 -66,6 -57,45 81,76 27,40 22,-6 -28,-35 27,-33 19,-1 28,30 7,-9 -25,-24 5,-9 29,-3 19,23 12,18 36,-20 -59,-47 4,-17 12,11 22,-14 z"
     id="path4217" />
  <path
     style="fill:#aeb19e"
     d="m 895,13 -2,16 -26,20 99,82 65,23 84,62 28,7 79,58 c 0,0 13,-12 13,-12 l 102,65 42,3 45,22 71,59 40,62 60,71 -14,23 223,154 41,-49 137,86 3,45 58,-4 1,-15 -43,4 -1,-24 47,0 -2,-23 -54,1 -21,-17 56,-9 -10,-17 -79,7 -16,-22 50,-5 -12,-26 -74,9 -22,-22 51,-5 -39,-35 -78,2 -17,-21 50,-12 -22,-24 -77,6 -9,15 66,42 0,19 -30,0 -80,-60 -27,2 -49,-39 -6,-24 13,-9 c 11,-20 -2,-38 -21,-37 l -31,12 -69,-98 -4,-20 -16,2 -171,-72 6,-10 -5,-15 -28,0 -20,-17 -13,-66 -99,-41 -2,-20 -16,0 0,20 -45,-31 c -8,-9 -34,-16 -39,-6 l -17,20 -33,-36 -1,-11 -12,1 -28,15 -12,-14 15,-9 -5,-54 -19,-1 -6,12 -8,-17 -13,1 z"
     id="path4215" />
  <path
     style="fill:#aeb19e"
     d="m 1088,82 -8,7 10,1 14,16 15,2 4,-9 -28,-10 z"
     id="path4205" />
</svg>
